Coordinates
version=1
nRows=9
nColumns=36
inDegrees=yes

Units are S.I. units (second, meters, Newtons, ...)
If the header above contains a line with 'inDegrees', this indicates whether rotational values are in degrees (yes) or radians (no).

endheader
time	pelvis_tilt	pelvis_list	pelvis_rotation	pelvis_tx	pelvis_ty	pelvis_tz	hip_flexion_r	hip_adduction_r	hip_rotation_r	knee_angle_r	knee_angle_r_beta	ankle_angle_r	subtalar_angle_r	mtp_angle_r	hip_flexion_l	hip_adduction_l	hip_rotation_l	knee_angle_l	knee_angle_l_beta	ankle_angle_l	subtalar_angle_l	mtp_angle_l	lumbar_extension	lumbar_bending	lumbar_rotation	arm_flex_r	arm_add_r	arm_rot_r	elbow_flex_r	pro_sup_r	arm_flex_l	arm_add_l	arm_rot_l	elbow_flex_l	pro_sup_l
      0.39000000	     -0.58066935	     -6.28172623	      3.38408282	      0.34601313	      0.93562160	     -0.28443195	     -5.65884824	     10.41909320	      2.84912824	      2.36485734	      0.04127455	      5.95501213	    -11.23640514	     -6.90219298	     28.67518892	      0.09614541	     14.76867252	     51.58422109	      0.90031450	     -0.58593229	    -24.89953118	     -6.90219298	    -17.19780711	     20.40225701	     -0.55823955	     -0.30510905	    -13.17148616	    -12.70390439	     49.62433692	     99.99245687	    -16.92301704	     -6.76376685	    -15.22138287	     46.00005698	    101.24559633
      0.40000000	     -0.58396408	     -6.12981921	      3.23417878	      0.35485882	      0.93509904	     -0.28328784	     -6.38800818	     10.34406150	      2.90346458	      2.16353055	      0.03776073	      6.40330161	    -10.99489955	     -6.91353853	     29.29911160	     -0.01517040	     14.59043272	     48.40812349	      0.84488114	     -0.39911716	    -24.86247357	     -6.91353853	    -17.27438033	     19.79430609	     -0.02539741	     -0.18009334	    -13.17221086	    -12.34038824	     49.89394556	     99.89214911	    -16.97141435	     -6.65611250	    -16.16776657	     46.53012436	    101.07618850
      0.41000000	     -0.63241044	     -6.01697219	      3.09533011	      0.36379586	      0.93433745	     -0.28219781	     -7.05043986	     10.28868092	      2.82097216	      2.03807276	      0.03557108	      7.08233759	    -10.27246596	     -6.94525740	     29.84787546	     -0.17542618	     14.45866814	     45.05052619	      0.78628001	     -0.21104987	    -24.48280766	     -6.94525740	    -17.26574139	     19.19273324	      0.21947052	      0.13960249	    -13.19452617	    -11.57873575	     49.98787436	     99.73192656	    -17.24716366	     -6.30237382	    -17.71420744	     47.33594949	    100.72916154
      0.42000000	     -0.87320072	     -5.98033920	      2.92186944	      0.37271684	      0.93320304	     -0.28102054	     -7.47416116	     10.31207835	      2.84705935	      1.94713693	      0.03398395	      7.39073610	    -10.10791310	     -6.95247774	     30.52650821	     -0.44235641	     14.30654841	     41.59187973	      0.72591524	     -0.11092097	    -23.70958165	     -6.95247774	    -17.01999110	     18.69062967	      0.76957902	      0.15922729	    -13.20910076	    -11.25702262	     50.25218593	     99.71246067	    -17.27246048	     -6.29679193	    -18.05819163	     47.56396874	    100.61167629
      0.43000000	     -0.88097373	     -5.94184730	      2.69938839	      0.38174218	      0.93218036	     -0.27972670	     -8.18996697	     10.32368654	      2.87245383	      1.83904404	      0.03209737	      8.11373439	     -9.34505214	     -6.97796068	     30.82712192	     -0.82544560	     13.99271113	     38.02975431	      0.66374443	      0.52919976	    -21.87321098	     -6.97796068	    -17.12129588	     18.12532713	      1.25584470	      0.29985051	    -13.22605697	    -10.68136526	     50.57772513	     99.82230737	    -17.34945074	     -6.09403365	    -19.02890175	     47.99695328	    100.32909764
      0.44000000	     -1.12070364	     -5.96232162	      2.48669124	      0.39078724	      0.93072952	     -0.27845192	     -8.61635516	     10.39553179	      2.89700068	      1.78403330	      0.03113726	      8.48441761	     -9.13136758	     -6.98585120	     31.29875062	     -1.22352075	     13.76210570	     34.40994206	      0.60056678	      0.34354719	    -20.34619163	     -6.98585120	    -16.91353125	     17.62688846	      1.82164446	      0.29855801	    -13.21157031	    -10.35743164	     50.86544329	     99.86350714	    -17.36483985	     -6.04817817	    -19.40748301	     48.20963107	    100.20530101
      0.45000000	     -1.14766800	     -6.03754472	      2.24572470	      0.39999996	      0.92931254	     -0.27709013	     -9.29078488	     10.52034841	      2.85903788	      1.74291459	      0.03041960	      9.25026771	     -8.26503164	     -7.01276501	     31.49519671	     -1.80288879	     13.22966731	     30.90132546	      0.53932987	      1.32670240	    -17.15572326	     -7.01276501	    -16.97311339	     17.15471108	      2.28322632	      0.45180380	    -13.19307805	     -9.88826998	     51.13708247	    100.13334956	    -17.45839756	     -5.84558361	    -20.30212748	     48.64295116	     99.92622954
      0.46000000	     -1.24609666	     -6.09586147	      1.99401462	      0.40939276	      0.92771094	     -0.27568313	     -9.88487804	     10.62854038	      2.88041327	      1.73589741	      0.03029713	      9.84121716	     -7.71489166	     -7.04019693	     31.67005567	     -2.34909604	     12.63176512	     27.39409387	      0.47811713	      1.71109039	    -14.16621567	     -7.04019693	    -16.90142852	     16.65104687	      2.78736237	      0.50641267	    -13.17384198	     -9.49205642	     51.30387891	    100.39650947	    -17.51682539	     -5.73416045	    -20.91473025	     48.98338100	     99.66913964
      0.47000000	     -1.26731117	     -6.13708345	      1.64711776	      0.41886709	      0.92615282	     -0.27418318	    -10.56904613	     10.68917001	      2.98435765	      1.71207660	      0.02988137	     10.38225695	     -7.21363355	     -7.06311567	     31.68647839	     -2.93908024	     11.74068388	     24.00811073	      0.41902058	      2.08106073	    -11.10181679	     -7.06311567	    -16.98416287	     16.09250883	      3.34010461	      0.64940839	    -13.10418554	     -9.15400230	     51.49184216	    100.58253342	    -17.52974475	     -5.61972983	    -21.48137283	     49.26652568	     99.43924895
